<svg xmlns="http://www.w3.org/2000/svg" viewBox="0 0 64 64">
  <defs>
    <linearGradient id="g" x1="0" y1="0" x2="1" y2="1">
      <stop offset="0%" stop-color="#16a34a"/>
      <stop offset="100%" stop-color="#065f46"/>
    </linearGradient>
  </defs>
  <rect width="64" height="64" rx="12" fill="#0b1220"/>
  <g transform="translate(8 6)">
    <path d="M24 0c7 5 14 6 24 8 0 18-6 30-24 36C6 38 0 26 0 8c10-2 17-3 24-8z" fill="url(#g)"/>
    <g transform="translate(12 14)">
      <rect x="4" y="12" width="16" height="12" rx="2" fill="#0b1220"/>
      <path d="M8 12V9a8 8 0 0 1 16 0v3h-3V9a5 5 0 0 0-10 0v3H8z" fill="#0b1220"/>
      <rect x="11" y="16" width="6" height="6" rx="3" fill="#16a34a"/>
    </g>
  </g>
</svg>

